<svg width="24" height="24" viewBox="0 0 24 24" fill="none" xmlns="http://www.w3.org/2000/svg">
<path fill-rule="evenodd" clip-rule="evenodd" d="M5.98959 8.42612C6.54188 8.42612 6.98959 8.87383 6.98959 9.42612L6.98959 17.0104L14.5739 17.0104C15.1262 17.0104 15.5739 17.4581 15.5739 18.0104C15.5739 18.5627 15.1262 19.0104 14.5739 19.0104L5.98959 19.0104C5.72438 19.0104 5.47002 18.905 5.28249 18.7175C5.09495 18.53 4.98959 18.2756 4.98959 18.0104L4.98959 9.42612C4.98959 8.87383 5.43731 8.42612 5.98959 8.42612Z" fill="#292D32"/>
<path fill-rule="evenodd" clip-rule="evenodd" d="M18.7175 5.28249C19.108 5.67301 19.108 6.30617 18.7175 6.6967L6.81691 18.5973C6.42638 18.9878 5.79322 18.9878 5.40269 18.5973C5.01217 18.2068 5.01217 17.5736 5.40269 17.1831L17.3033 5.28249C17.6938 4.89196 18.327 4.89196 18.7175 5.28249Z" fill="#292D32"/>
</svg>
