<svg width="24" height="24" viewBox="0 0 24 24" fill="none" xmlns="http://www.w3.org/2000/svg">
<path fill-rule="evenodd" clip-rule="evenodd" d="M12 2.5C12.2652 2.5 12.5196 2.60536 12.7071 2.79289L18.7771 8.86289C19.1676 9.25342 19.1676 9.88658 18.7771 10.2771C18.3866 10.6676 17.7534 10.6676 17.3629 10.2771L12 4.91421L6.6371 10.2771C6.24658 10.6676 5.61341 10.6676 5.22289 10.2771C4.83236 9.88658 4.83236 9.25342 5.22289 8.86289L11.2929 2.79289C11.4804 2.60536 11.7348 2.5 12 2.5Z" fill="#292D32"/>
<path fill-rule="evenodd" clip-rule="evenodd" d="M12 2.66998C12.5523 2.66998 13 3.1177 13 3.66998V20.5C13 21.0523 12.5523 21.5 12 21.5C11.4477 21.5 11 21.0523 11 20.5V3.66998C11 3.1177 11.4477 2.66998 12 2.66998Z" fill="#292D32"/>
</svg>
