<svg width="24" height="24" viewBox="0 0 24 24" fill="none" xmlns="http://www.w3.org/2000/svg">
<path fill-rule="evenodd" clip-rule="evenodd" d="M10.2771 5.22289C10.6676 5.61341 10.6676 6.24658 10.2771 6.6371L4.91421 12L10.2771 17.3629C10.6676 17.7534 10.6676 18.3866 10.2771 18.7771C9.88658 19.1676 9.25342 19.1676 8.86289 18.7771L2.79289 12.7071C2.60536 12.5196 2.5 12.2652 2.5 12C2.5 11.7348 2.60536 11.4804 2.79289 11.2929L8.86289 5.22289C9.25342 4.83236 9.88658 4.83236 10.2771 5.22289Z" fill="#292D32"/>
<path fill-rule="evenodd" clip-rule="evenodd" d="M2.67001 12C2.67001 11.4477 3.11773 11 3.67001 11H20.5C21.0523 11 21.5 11.4477 21.5 12C21.5 12.5523 21.0523 13 20.5 13H3.67001C3.11773 13 2.67001 12.5523 2.67001 12Z" fill="#292D32"/>
</svg>
