<svg width="24" height="24" viewBox="0 0 24 24" fill="none" xmlns="http://www.w3.org/2000/svg">
<path fill-rule="evenodd" clip-rule="evenodd" d="M13.7229 5.22289C14.1134 4.83236 14.7466 4.83236 15.1371 5.22289L21.2071 11.2929C21.3946 11.4804 21.5 11.7348 21.5 12C21.5 12.2652 21.3946 12.5196 21.2071 12.7071L15.1371 18.7771C14.7466 19.1676 14.1134 19.1676 13.7229 18.7771C13.3324 18.3866 13.3324 17.7534 13.7229 17.3629L19.0858 12L13.7229 6.6371C13.3324 6.24658 13.3324 5.61341 13.7229 5.22289Z" fill="#292D32"/>
<path fill-rule="evenodd" clip-rule="evenodd" d="M2.5 12C2.5 11.4477 2.94772 11 3.5 11H20.33C20.8823 11 21.33 11.4477 21.33 12C21.33 12.5523 20.8823 13 20.33 13H3.5C2.94772 13 2.5 12.5523 2.5 12Z" fill="#292D32"/>
</svg>
