<svg width="24" height="24" viewBox="0 0 24 24" fill="none" xmlns="http://www.w3.org/2000/svg">
<path fill-rule="evenodd" clip-rule="evenodd" d="M12 2.75C6.89137 2.75 2.75 6.89137 2.75 12C2.75 17.1086 6.89137 21.25 12 21.25C17.1086 21.25 21.25 17.1086 21.25 12C21.25 6.89137 17.1086 2.75 12 2.75ZM1.25 12C1.25 6.06294 6.06294 1.25 12 1.25C17.9371 1.25 22.75 6.06294 22.75 12C22.75 17.9371 17.9371 22.75 12 22.75C6.06294 22.75 1.25 17.9371 1.25 12Z" fill="#292D32"/>
<path fill-rule="evenodd" clip-rule="evenodd" d="M8.75 12C8.75 11.5858 9.08579 11.25 9.5 11.25H15.5C15.9142 11.25 16.25 11.5858 16.25 12C16.25 12.4142 15.9142 12.75 15.5 12.75H9.5C9.08579 12.75 8.75 12.4142 8.75 12Z" fill="#292D32"/>
<path fill-rule="evenodd" clip-rule="evenodd" d="M12.0303 8.46967C12.3232 8.76256 12.3232 9.23744 12.0303 9.53033L9.56066 12L12.0303 14.4697C12.3232 14.7626 12.3232 15.2374 12.0303 15.5303C11.7374 15.8232 11.2626 15.8232 10.9697 15.5303L7.96967 12.5303C7.67678 12.2374 7.67678 11.7626 7.96967 11.4697L10.9697 8.46967C11.2626 8.17678 11.7374 8.17678 12.0303 8.46967Z" fill="#292D32"/>
</svg>
