<svg width="24" height="24" viewBox="0 0 24 24" fill="none" xmlns="http://www.w3.org/2000/svg">
<path fill-rule="evenodd" clip-rule="evenodd" d="M18.7175 5.28251C18.905 5.47005 19.0104 5.7244 19.0104 5.98962L19.0104 14.5739C19.0104 15.1262 18.5627 15.5739 18.0104 15.5739C17.4581 15.5739 17.0104 15.1262 17.0104 14.5739L17.0104 6.98962L9.42611 6.98962C8.87382 6.98962 8.42611 6.5419 8.42611 5.98962C8.42611 5.43733 8.87382 4.98962 9.42611 4.98962L18.0104 4.98962C18.2756 4.98962 18.53 5.09497 18.7175 5.28251Z" fill="#292D32"/>
<path fill-rule="evenodd" clip-rule="evenodd" d="M18.5973 5.40272C18.9878 5.79325 18.9878 6.42641 18.5973 6.81694L6.6967 18.7175C6.30617 19.1081 5.67301 19.1081 5.28248 18.7175C4.89196 18.327 4.89196 17.6939 5.28248 17.3033L17.1831 5.40272C17.5736 5.0122 18.2068 5.0122 18.5973 5.40272Z" fill="#292D32"/>
</svg>
