<svg width="24" height="24" viewBox="0 0 24 24" fill="none" xmlns="http://www.w3.org/2000/svg">
<path fill-rule="evenodd" clip-rule="evenodd" d="M5.22289 13.7229C5.61341 13.3324 6.24658 13.3324 6.6371 13.7229L12 19.0858L17.3629 13.7229C17.7534 13.3324 18.3866 13.3324 18.7771 13.7229C19.1676 14.1134 19.1676 14.7466 18.7771 15.1371L12.7071 21.2071C12.5196 21.3946 12.2652 21.5 12 21.5C11.7348 21.5 11.4804 21.3946 11.2929 21.2071L5.22289 15.1371C4.83236 14.7466 4.83236 14.1134 5.22289 13.7229Z" fill="#292D32"/>
<path fill-rule="evenodd" clip-rule="evenodd" d="M12 2.5C12.5523 2.5 13 2.94772 13 3.5V20.33C13 20.8823 12.5523 21.33 12 21.33C11.4477 21.33 11 20.8823 11 20.33V3.5C11 2.94772 11.4477 2.5 12 2.5Z" fill="#292D32"/>
</svg>
