<svg width="24" height="24" viewBox="0 0 24 24" fill="none" xmlns="http://www.w3.org/2000/svg">
<path d="M6.39036 5.05364L11.9015 2.8492C11.9043 2.84852 11.9102 2.84723 11.9192 2.84579C11.9402 2.84246 11.9683 2.84003 12 2.84003C12.0317 2.84003 12.0598 2.84246 12.0808 2.84579C12.0898 2.84723 12.0957 2.84852 12.0985 2.8492L17.6096 5.05364H21.6485L12.6485 1.45367L12.37 2.15003L12 1.34003L11.3515 1.45367L2.35146 5.05364H6.39036Z" fill="#292D32"/>
<path d="M12.6485 1.45367C12.4313 1.36678 12.1938 1.34003 12 1.34003L12.37 2.15003L12.6485 1.45367Z" fill="#292D32"/>
<path d="M2.89866 6.45178C2.90526 6.44767 2.90855 6.44636 2.90855 6.44636L6.39036 5.05364H2.35146C2.00846 5.19085 1.74082 5.44404 1.56185 5.70953C1.38312 5.97468 1.25 6.31561 1.25 6.68V10C1.25 10.9642 2.03579 11.75 3 11.75H21C21.9642 11.75 22.75 10.9642 22.75 10V6.68C22.75 6.31561 22.6169 5.97468 22.4381 5.70953C22.2592 5.44404 21.9915 5.19085 21.6485 5.05364H17.6096L21.0915 6.44636C21.0915 6.44636 21.0947 6.44767 21.1013 6.45178C21.1079 6.45588 21.1168 6.46217 21.1273 6.47121C21.149 6.48982 21.1727 6.51589 21.1943 6.54796C21.216 6.58004 21.2313 6.61192 21.2405 6.63901C21.2498 6.66662 21.25 6.68 21.25 6.68V10C21.25 10.1358 21.1358 10.25 21 10.25H3C2.86421 10.25 2.75 10.1358 2.75 10L2.75 6.67995C2.75 6.67995 2.75079 6.66482 2.75954 6.63901C2.76872 6.61192 2.78403 6.58004 2.80565 6.54796C2.82727 6.51589 2.85102 6.48982 2.87268 6.47121C2.8832 6.46217 2.89207 6.45588 2.89866 6.45178Z" fill="#292D32"/>
<path fill-rule="evenodd" clip-rule="evenodd" d="M3 18.75C2.86421 18.75 2.75 18.8642 2.75 19V21.25H21.25V19C21.25 18.8642 21.1358 18.75 21 18.75H3ZM1.25 19C1.25 18.0358 2.03579 17.25 3 17.25H21C21.9642 17.25 22.75 18.0358 22.75 19V22C22.75 22.4142 22.4142 22.75 22 22.75H2C1.58579 22.75 1.25 22.4142 1.25 22V19Z" fill="#292D32"/>
<path fill-rule="evenodd" clip-rule="evenodd" d="M4 10.25C4.41421 10.25 4.75 10.5858 4.75 11V18C4.75 18.4142 4.41421 18.75 4 18.75C3.58579 18.75 3.25 18.4142 3.25 18V11C3.25 10.5858 3.58579 10.25 4 10.25Z" fill="#292D32"/>
<path fill-rule="evenodd" clip-rule="evenodd" d="M8 10.25C8.41421 10.25 8.75 10.5858 8.75 11V18C8.75 18.4142 8.41421 18.75 8 18.75C7.58579 18.75 7.25 18.4142 7.25 18V11C7.25 10.5858 7.58579 10.25 8 10.25Z" fill="#292D32"/>
<path fill-rule="evenodd" clip-rule="evenodd" d="M12 10.25C12.4142 10.25 12.75 10.5858 12.75 11V18C12.75 18.4142 12.4142 18.75 12 18.75C11.5858 18.75 11.25 18.4142 11.25 18V11C11.25 10.5858 11.5858 10.25 12 10.25Z" fill="#292D32"/>
<path fill-rule="evenodd" clip-rule="evenodd" d="M16 10.25C16.4142 10.25 16.75 10.5858 16.75 11V18C16.75 18.4142 16.4142 18.75 16 18.75C15.5858 18.75 15.25 18.4142 15.25 18V11C15.25 10.5858 15.5858 10.25 16 10.25Z" fill="#292D32"/>
<path fill-rule="evenodd" clip-rule="evenodd" d="M20 10.25C20.4142 10.25 20.75 10.5858 20.75 11V18C20.75 18.4142 20.4142 18.75 20 18.75C19.5858 18.75 19.25 18.4142 19.25 18V11C19.25 10.5858 19.5858 10.25 20 10.25Z" fill="#292D32"/>
<path fill-rule="evenodd" clip-rule="evenodd" d="M0.25 22C0.25 21.5858 0.585786 21.25 1 21.25H23C23.4142 21.25 23.75 21.5858 23.75 22C23.75 22.4142 23.4142 22.75 23 22.75H1C0.585786 22.75 0.25 22.4142 0.25 22Z" fill="#292D32"/>
<path fill-rule="evenodd" clip-rule="evenodd" d="M12 6.25C11.5858 6.25 11.25 6.58579 11.25 7C11.25 7.41421 11.5858 7.75 12 7.75C12.4142 7.75 12.75 7.41421 12.75 7C12.75 6.58579 12.4142 6.25 12 6.25ZM9.75 7C9.75 5.75736 10.7574 4.75 12 4.75C13.2426 4.75 14.25 5.75736 14.25 7C14.25 8.24264 13.2426 9.25 12 9.25C10.7574 9.25 9.75 8.24264 9.75 7Z" fill="#292D32"/>
</svg>
