<svg width="24" height="24" viewBox="0 0 24 24" fill="none" xmlns="http://www.w3.org/2000/svg">
<path d="M22 19V22H2V19C2 18.45 2.45 18 3 18H21C21.55 18 22 18.45 22 19Z" fill="#292D32"/>
<path fill-rule="evenodd" clip-rule="evenodd" d="M3 18.75C2.86421 18.75 2.75 18.8642 2.75 19V21.25H21.25V19C21.25 18.8642 21.1358 18.75 21 18.75H3ZM1.25 19C1.25 18.0358 2.03579 17.25 3 17.25H21C21.9642 17.25 22.75 18.0358 22.75 19V22C22.75 22.4142 22.4142 22.75 22 22.75H2C1.58579 22.75 1.25 22.4142 1.25 22V19Z" fill="#292D32"/>
<path d="M7 11H5V18H7V11Z" fill="#292D32"/>
<path d="M11 11H9V18H11V11Z" fill="#292D32"/>
<path d="M15 11H13V18H15V11Z" fill="#292D32"/>
<path d="M19 11H17V18H19V11Z" fill="#292D32"/>
<path d="M23 22.75H1C0.59 22.75 0.25 22.41 0.25 22C0.25 21.59 0.59 21.25 1 21.25H23C23.41 21.25 23.75 21.59 23.75 22C23.75 22.41 23.41 22.75 23 22.75Z" fill="#292D32"/>
<path d="M21.37 5.75003L12.37 2.15003C12.17 2.07003 11.83 2.07003 11.63 2.15003L2.63 5.75003C2.28 5.89003 2 6.30003 2 6.68003V10C2 10.55 2.45 11 3 11H21C21.55 11 22 10.55 22 10V6.68003C22 6.30003 21.72 5.89003 21.37 5.75003ZM12 8.50003C11.17 8.50003 10.5 7.83003 10.5 7.00003C10.5 6.17003 11.17 5.50003 12 5.50003C12.83 5.50003 13.5 6.17003 13.5 7.00003C13.5 7.83003 12.83 8.50003 12 8.50003Z" fill="#292D32"/>
</svg>
