<svg width="24" height="24" viewBox="0 0 24 24" fill="none" xmlns="http://www.w3.org/2000/svg">
<path fill-rule="evenodd" clip-rule="evenodd" d="M5.26999 8.91003C5.26999 5.18582 8.29578 2.16003 12.02 2.16003C15.7342 2.16003 18.77 5.19582 18.77 8.91003V11.8C18.77 12.0149 18.8186 12.3294 18.9108 12.6654C19.0018 12.9974 19.1194 13.2924 19.2265 13.4798L20.3731 15.3842C21.2787 16.8934 20.5548 18.8595 18.8865 19.4118C14.4226 20.9029 9.6062 20.9028 5.14233 19.4114L5.13955 19.4104C4.29714 19.1253 3.66538 18.5358 3.38291 17.773C3.10011 17.0092 3.19632 16.1496 3.65735 15.3834L4.80578 13.476C4.80604 13.4756 4.80629 13.4751 4.80654 13.4747C4.91605 13.2906 5.036 12.9966 5.12857 12.6632C5.22142 12.3287 5.26999 12.0147 5.26999 11.8V8.91003ZM12.02 3.66003C9.12421 3.66003 6.76999 6.01425 6.76999 8.91003V11.8C6.76999 12.1954 6.68857 12.6514 6.57392 13.0644C6.4592 13.4776 6.29449 13.9081 6.0942 14.2441L6.09252 14.2469L4.94263 16.1567C4.94259 16.1568 4.94267 16.1566 4.94263 16.1567C4.69378 16.5704 4.67989 16.9559 4.78957 17.2521C4.8995 17.549 5.16234 17.8342 5.6191 17.9892C9.77445 19.3772 14.2571 19.377 18.4123 17.9887L18.4146 17.9879C19.1653 17.7398 19.5009 16.8468 19.0872 16.1564C19.0871 16.1563 19.0873 16.1566 19.0872 16.1564L17.9302 14.2349C17.7381 13.9019 17.5773 13.4744 17.4642 13.0621C17.3514 12.6507 17.27 12.1952 17.27 11.8V8.91003C17.27 6.02425 14.9058 3.66003 12.02 3.66003Z" fill="#292D32"/>
<path fill-rule="evenodd" clip-rule="evenodd" d="M9.47171 2.92629C9.87115 1.90701 10.8629 1.18994 12.02 1.18994C13.1771 1.18994 14.1688 1.90701 14.5683 2.92629C14.6726 3.19236 14.6166 3.49457 14.4239 3.70562C14.2312 3.91667 13.9353 3.99988 13.6609 3.9202C13.3835 3.83966 13.1035 3.77889 12.8197 3.74449L12.817 3.74415C11.9526 3.6361 11.1358 3.70023 10.3794 3.92013C10.1049 3.99991 9.80894 3.91676 9.6162 3.70571C9.42345 3.49466 9.36742 3.1924 9.47171 2.92629Z" fill="#292D32"/>
<path fill-rule="evenodd" clip-rule="evenodd" d="M9.76999 19.0601C9.76999 19.6726 10.0248 20.2442 10.4303 20.6497C10.8358 21.0553 11.4075 21.3101 12.02 21.3101C13.2558 21.3101 14.27 20.2958 14.27 19.0601H15.77C15.77 21.1243 14.0842 22.8101 12.02 22.8101C10.9925 22.8101 10.0441 22.3849 9.36966 21.7104C8.69518 21.0359 8.26999 20.0875 8.26999 19.0601H9.76999Z" fill="#292D32"/>
</svg>
