<svg width="24" height="24" viewBox="0 0 24 24" fill="none" xmlns="http://www.w3.org/2000/svg">
<path fill-rule="evenodd" clip-rule="evenodd" d="M1.25 8.50494C1.25 8.09073 1.58579 7.75494 2 7.75494H22C22.4142 7.75494 22.75 8.09073 22.75 8.50494C22.75 8.91916 22.4142 9.25494 22 9.25494H2C1.58579 9.25494 1.25 8.91916 1.25 8.50494Z" fill="#292D32"/>
<path fill-rule="evenodd" clip-rule="evenodd" d="M5.25 16.5049C5.25 16.0907 5.58579 15.7549 6 15.7549H8C8.41421 15.7549 8.75 16.0907 8.75 16.5049C8.75 16.9192 8.41421 17.2549 8 17.2549H6C5.58579 17.2549 5.25 16.9192 5.25 16.5049Z" fill="#292D32"/>
<path fill-rule="evenodd" clip-rule="evenodd" d="M9.75 16.5049C9.75 16.0907 10.0858 15.7549 10.5 15.7549H14.5C14.9142 15.7549 15.25 16.0907 15.25 16.5049C15.25 16.9192 14.9142 17.2549 14.5 17.2549H10.5C10.0858 17.2549 9.75 16.9192 9.75 16.5049Z" fill="#292D32"/>
<path fill-rule="evenodd" clip-rule="evenodd" d="M3.41607 4.91702C2.99101 5.33729 2.75 6.13612 2.75 7.89494V16.1149C2.75 17.8741 2.99115 18.6723 3.41556 19.0911C3.84272 19.5127 4.65679 19.75 6.43789 19.7449L6.44 19.7449L17.56 19.7449C19.341 19.7449 20.1559 19.5061 20.5839 19.0829C21.009 18.6626 21.25 17.8638 21.25 16.1049V7.89494C21.25 6.13605 21.0089 5.3377 20.5832 4.91751C20.1539 4.4939 19.3363 4.25494 17.55 4.25494H6.44C4.659 4.25494 3.84409 4.49382 3.41607 4.91702ZM2.36143 3.85037C3.26591 2.95607 4.671 2.75494 6.44 2.75494H17.55C19.3237 2.75494 20.7311 2.95599 21.6368 3.84988C22.5461 4.74719 22.75 6.14384 22.75 7.89494V16.1049C22.75 17.8561 22.546 19.2523 21.6386 20.1495C20.7341 21.0438 19.329 21.2449 17.56 21.2449H6.44074C4.67249 21.2498 3.26704 21.052 2.36194 20.1588C1.45385 19.2626 1.25 17.8658 1.25 16.1149V7.89494C1.25 6.14377 1.45399 4.74759 2.36143 3.85037Z" fill="#292D32"/>
</svg>
