<svg width="24" height="24" viewBox="0 0 24 24" fill="none" xmlns="http://www.w3.org/2000/svg">
<path fill-rule="evenodd" clip-rule="evenodd" d="M3.09467 3.09467C4.42914 1.7602 6.42603 1.25 9 1.25H15C17.574 1.25 19.5709 1.7602 20.9053 3.09467C22.2398 4.42914 22.75 6.42603 22.75 9V15C22.75 17.574 22.2398 19.5709 20.9053 20.9053C19.5709 22.2398 17.574 22.75 15 22.75H9C6.42603 22.75 4.42914 22.2398 3.09467 20.9053C1.7602 19.5709 1.25 17.574 1.25 15V9C1.25 6.42603 1.7602 4.42914 3.09467 3.09467ZM4.15533 4.15533C3.2398 5.07086 2.75 6.57397 2.75 9V15C2.75 17.426 3.2398 18.9291 4.15533 19.8447C5.07086 20.7602 6.57397 21.25 9 21.25H15C17.426 21.25 18.9291 20.7602 19.8447 19.8447C20.7602 18.9291 21.25 17.426 21.25 15V9C21.25 6.57397 20.7602 5.07086 19.8447 4.15533C18.9291 3.2398 17.426 2.75 15 2.75H9C6.57397 2.75 5.07086 3.2398 4.15533 4.15533Z" fill="black"/>
<path fill-rule="evenodd" clip-rule="evenodd" d="M16.7808 8.64018C17.0734 8.93333 17.073 9.40821 16.7799 9.70084L11.1099 15.3608C10.8169 15.6533 10.3424 15.6531 10.0497 15.3604L7.21967 12.5304C6.92678 12.2375 6.92678 11.7626 7.21967 11.4697C7.51256 11.1768 7.98744 11.1768 8.28033 11.4697L10.5805 13.7699L15.7201 8.63925C16.0133 8.34661 16.4882 8.34703 16.7808 8.64018Z" fill="black"/>
</svg>
