<svg width="24" height="24" viewBox="0 0 24 24" fill="none" xmlns="http://www.w3.org/2000/svg">
<path fill-rule="evenodd" clip-rule="evenodd" d="M1.25 12C1.25 6.08579 6.08579 1.25 12 1.25C17.9142 1.25 22.75 6.08579 22.75 12C22.75 17.9142 17.9142 22.75 12 22.75C6.08579 22.75 1.25 17.9142 1.25 12ZM12 2.75C6.91421 2.75 2.75 6.91421 2.75 12C2.75 17.0858 6.91421 21.25 12 21.25C17.0858 21.25 21.25 17.0858 21.25 12C21.25 6.91421 17.0858 2.75 12 2.75Z" fill="black"/>
<path fill-rule="evenodd" clip-rule="evenodd" d="M16.7808 8.64018C17.0734 8.93333 17.073 9.40821 16.7799 9.70084L11.1099 15.3608C10.8169 15.6533 10.3424 15.6531 10.0497 15.3604L7.21967 12.5304C6.92678 12.2375 6.92678 11.7626 7.21967 11.4697C7.51256 11.1768 7.98744 11.1768 8.28033 11.4697L10.5805 13.7699L15.7201 8.63925C16.0133 8.34661 16.4882 8.34703 16.7808 8.64018Z" fill="black"/>
</svg>
