<svg width="24" height="24" viewBox="0 0 24 24" fill="none" xmlns="http://www.w3.org/2000/svg">
<path fill-rule="evenodd" clip-rule="evenodd" d="M12 2.75C6.89137 2.75 2.75 6.89137 2.75 12C2.75 17.1086 6.89137 21.25 12 21.25C17.1086 21.25 21.25 17.1086 21.25 12C21.25 6.89137 17.1086 2.75 12 2.75ZM1.25 12C1.25 6.06294 6.06294 1.25 12 1.25C17.9371 1.25 22.75 6.06294 22.75 12C22.75 17.9371 17.9371 22.75 12 22.75C6.06294 22.75 1.25 17.9371 1.25 12Z" fill="#292D32"/>
<path fill-rule="evenodd" clip-rule="evenodd" d="M7.93892 10.2104C8.2314 9.9171 8.70627 9.91643 8.99958 10.2089L12 13.2008L15.0004 10.2089C15.2937 9.91643 15.7686 9.9171 16.0611 10.2104C16.3536 10.5037 16.3529 10.9786 16.0596 11.2711L12.5296 14.7911C12.2369 15.083 11.7631 15.083 11.4704 14.7911L7.94042 11.2711C7.64712 10.9786 7.64644 10.5037 7.93892 10.2104Z" fill="#292D32"/>
</svg>
