<svg width="24" height="24" viewBox="0 0 24 24" fill="none" xmlns="http://www.w3.org/2000/svg">
<path fill-rule="evenodd" clip-rule="evenodd" d="M12 2.75C6.89137 2.75 2.75 6.89137 2.75 12C2.75 17.1086 6.89137 21.25 12 21.25C17.1086 21.25 21.25 17.1086 21.25 12C21.25 6.89137 17.1086 2.75 12 2.75ZM1.25 12C1.25 6.06294 6.06294 1.25 12 1.25C17.9371 1.25 22.75 6.06294 22.75 12C22.75 17.9371 17.9371 22.75 12 22.75C6.06294 22.75 1.25 17.9371 1.25 12Z" fill="#292D32"/>
<path fill-rule="evenodd" clip-rule="evenodd" d="M11.4704 9.20891C11.7631 8.91702 12.2369 8.91702 12.5296 9.20891L16.0596 12.7289C16.3529 13.0214 16.3536 13.4963 16.0611 13.7896C15.7686 14.0829 15.2937 14.0835 15.0004 13.7911L12 10.7991L8.99958 13.7911C8.70627 14.0835 8.2314 14.0829 7.93892 13.7896C7.64644 13.4963 7.64712 13.0214 7.94042 12.7289L11.4704 9.20891Z" fill="#292D32"/>
</svg>
