<svg width="24" height="24" viewBox="0 0 24 24" fill="none" xmlns="http://www.w3.org/2000/svg">
<path fill-rule="evenodd" clip-rule="evenodd" d="M3.09467 3.09467C4.42914 1.7602 6.42603 1.25 9 1.25H15C17.574 1.25 19.5709 1.7602 20.9053 3.09467C22.2398 4.42914 22.75 6.42603 22.75 9V15C22.75 17.574 22.2398 19.5709 20.9053 20.9053C19.5709 22.2398 17.574 22.75 15 22.75H9C6.42603 22.75 4.42914 22.2398 3.09467 20.9053C1.7602 19.5709 1.25 17.574 1.25 15V9C1.25 6.42603 1.7602 4.42914 3.09467 3.09467ZM4.15533 4.15533C3.2398 5.07086 2.75 6.57397 2.75 9V15C2.75 17.426 3.2398 18.9291 4.15533 19.8447C5.07086 20.7602 6.57397 21.25 9 21.25H15C17.426 21.25 18.9291 20.7602 19.8447 19.8447C20.7602 18.9291 21.25 17.426 21.25 15V9C21.25 6.57397 20.7602 5.07086 19.8447 4.15533C18.9291 3.2398 17.426 2.75 15 2.75H9C6.57397 2.75 5.07086 3.2398 4.15533 4.15533Z" fill="#292D32"/>
<path fill-rule="evenodd" clip-rule="evenodd" d="M7.93889 10.1104C8.23137 9.81713 8.70624 9.81646 8.99955 10.1089L12 13.1009L15.0004 10.1089C15.2937 9.81646 15.7686 9.81713 16.0611 10.1104C16.3535 10.4037 16.3529 10.8786 16.0595 11.1711L12.5295 14.6911C12.2368 14.983 11.7631 14.983 11.4704 14.6911L7.94039 11.1711C7.64709 10.8786 7.64641 10.4037 7.93889 10.1104Z" fill="#292D32"/>
</svg>
