<svg width="24" height="24" viewBox="0 0 24 24" fill="none" xmlns="http://www.w3.org/2000/svg">
<path fill-rule="evenodd" clip-rule="evenodd" d="M12 2.75C6.89137 2.75 2.75 6.89137 2.75 12C2.75 17.1086 6.89137 21.25 12 21.25C17.1086 21.25 21.25 17.1086 21.25 12C21.25 6.89137 17.1086 2.75 12 2.75ZM1.25 12C1.25 6.06294 6.06294 1.25 12 1.25C17.9371 1.25 22.75 6.06294 22.75 12C22.75 17.9371 17.9371 22.75 12 22.75C6.06294 22.75 1.25 17.9371 1.25 12Z" fill="#292D32"/>
<path fill-rule="evenodd" clip-rule="evenodd" d="M13.7896 7.93889C14.0829 8.23137 14.0835 8.70624 13.7911 8.99955L10.7991 12L13.7911 15.0004C14.0835 15.2937 14.0829 15.7686 13.7896 16.0611C13.4963 16.3535 13.0214 16.3529 12.7289 16.0595L9.20891 12.5295C8.91702 12.2368 8.91702 11.7631 9.20891 11.4704L12.7289 7.94039C13.0214 7.64708 13.4963 7.64641 13.7896 7.93889Z" fill="#292D32"/>
</svg>
