<svg width="24" height="24" viewBox="0 0 24 24" fill="none" xmlns="http://www.w3.org/2000/svg">
<path fill-rule="evenodd" clip-rule="evenodd" d="M8.5 3.5H5C4.17157 3.5 3.5 4.17157 3.5 5V10.5C3.5 11.3284 4.17157 12 5 12H8.5C9.32843 12 10 11.3284 10 10.5V5C10 4.17157 9.32843 3.5 8.5 3.5ZM5 2C3.34315 2 2 3.34315 2 5V10.5C2 12.1569 3.34315 13.5 5 13.5H8.5C10.1569 13.5 11.5 12.1569 11.5 10.5V5C11.5 3.34315 10.1569 2 8.5 2H5Z" fill="black"/>
<path fill-rule="evenodd" clip-rule="evenodd" d="M19 3.5H16C15.1716 3.5 14.5 4.17157 14.5 5V5.5C14.5 6.32843 15.1716 7 16 7H19C19.8284 7 20.5 6.32843 20.5 5.5V5C20.5 4.17157 19.8284 3.5 19 3.5ZM16 2C14.3431 2 13 3.34315 13 5V5.5C13 7.15685 14.3431 8.5 16 8.5H19C20.6569 8.5 22 7.15685 22 5.5V5C22 3.34315 20.6569 2 19 2H16Z" fill="black"/>
<path fill-rule="evenodd" clip-rule="evenodd" d="M8.5 16.5H5C4.17157 16.5 3.5 17.1716 3.5 18V19C3.5 19.8284 4.17157 20.5 5 20.5H8.5C9.32843 20.5 10 19.8284 10 19V18C10 17.1716 9.32843 16.5 8.5 16.5ZM5 15C3.34315 15 2 16.3431 2 18V19C2 20.6569 3.34315 22 5 22H8.5C10.1569 22 11.5 20.6569 11.5 19V18C11.5 16.3431 10.1569 15 8.5 15H5Z" fill="black"/>
<path fill-rule="evenodd" clip-rule="evenodd" d="M19 11.5H16C15.1716 11.5 14.5 12.1716 14.5 13V19C14.5 19.8284 15.1716 20.5 16 20.5H19C19.8284 20.5 20.5 19.8284 20.5 19V13C20.5 12.1716 19.8284 11.5 19 11.5ZM16 10C14.3431 10 13 11.3431 13 13V19C13 20.6569 14.3431 22 16 22H19C20.6569 22 22 20.6569 22 19V13C22 11.3431 20.6569 10 19 10H16Z" fill="black"/>
</svg>
