<svg width="24" height="24" viewBox="0 0 24 24" fill="none" xmlns="http://www.w3.org/2000/svg">
<path fill-rule="evenodd" clip-rule="evenodd" d="M3.09467 3.09467C4.42914 1.7602 6.42603 1.25 9 1.25H11C11.4142 1.25 11.75 1.58579 11.75 2C11.75 2.41421 11.4142 2.75 11 2.75H9C6.57397 2.75 5.07086 3.2398 4.15533 4.15533C3.2398 5.07086 2.75 6.57397 2.75 9V15C2.75 17.426 3.2398 18.9291 4.15533 19.8447C5.07086 20.7602 6.57397 21.25 9 21.25H15C17.426 21.25 18.9291 20.7602 19.8447 19.8447C20.7602 18.9291 21.25 17.426 21.25 15V13C21.25 12.5858 21.5858 12.25 22 12.25C22.4142 12.25 22.75 12.5858 22.75 13V15C22.75 17.574 22.2398 19.5709 20.9053 20.9053C19.5709 22.2398 17.574 22.75 15 22.75H9C6.42603 22.75 4.42914 22.2398 3.09467 20.9053C1.7602 19.5709 1.25 17.574 1.25 15V9C1.25 6.42603 1.7602 4.42914 3.09467 3.09467Z" fill="#292D32"/>
<path fill-rule="evenodd" clip-rule="evenodd" d="M18.1967 1.01356C19.3101 0.904277 20.4139 1.39321 21.5103 2.48965C22.6068 3.58608 23.0957 4.68989 22.9864 5.80324C22.881 6.87725 22.2333 7.76738 21.5103 8.49031L13.6216 16.379C13.3965 16.5969 13.1021 16.7873 12.8181 16.9301C12.5357 17.072 12.2031 17.1971 11.8861 17.2424L8.87226 17.673C8.13018 17.7751 7.42015 17.5725 6.92201 17.0764C6.4228 16.5792 6.2186 15.8689 6.32774 15.1226C6.32782 15.1221 6.32789 15.1216 6.32796 15.121L6.75721 12.1163C6.75727 12.1159 6.75733 12.1154 6.75739 12.115C6.80243 11.7938 6.92695 11.4588 7.06989 11.1744C7.21314 10.8894 7.406 10.5933 7.62968 10.3696L15.5097 2.48965C16.2326 1.76672 17.1227 1.11899 18.1967 1.01356ZM18.3433 2.50639C17.7873 2.56096 17.2074 2.91323 16.5703 3.55031L8.69034 11.4303C8.61403 11.5066 8.50689 11.6555 8.41013 11.848C8.31327 12.0408 8.25793 12.2153 8.24282 12.3236L8.24247 12.326L7.81247 15.336L7.81206 15.3389C7.7617 15.682 7.86256 15.8961 7.98052 16.0136C8.09967 16.1322 8.3191 16.2345 8.66598 16.1872C8.66657 16.1871 8.66717 16.1871 8.66777 16.187L11.6739 15.7575C11.7769 15.7428 11.9493 15.6879 12.1444 15.5899C12.3352 15.494 12.4892 15.3862 12.5748 15.3045L20.4497 7.42965C21.0868 6.79257 21.439 6.2127 21.4936 5.65671C21.5443 5.14006 21.3533 4.45387 20.4497 3.55031C19.5461 2.64674 18.8599 2.45567 18.3433 2.50639Z" fill="#292D32"/>
<path fill-rule="evenodd" clip-rule="evenodd" d="M14.7075 3.42781C15.1064 3.316 15.5203 3.54869 15.6321 3.94752C16.2312 6.08464 17.9041 7.7591 20.0544 8.36838C20.453 8.48129 20.6845 8.8959 20.5716 9.29442C20.4587 9.69295 20.0441 9.92448 19.6455 9.81157C16.9959 9.06084 14.9287 6.9953 14.1878 4.35242C14.076 3.95358 14.3087 3.53962 14.7075 3.42781Z" fill="#292D32"/>
</svg>
