<svg width="24" height="24" viewBox="0 0 24 24" fill="none" xmlns="http://www.w3.org/2000/svg">
<path fill-rule="evenodd" clip-rule="evenodd" d="M21.7303 2.26966C22.0232 2.56255 22.0232 3.03742 21.7303 3.33032L13.5303 11.5303C13.2374 11.8232 12.7626 11.8232 12.4697 11.5303C12.1768 11.2374 12.1768 10.7626 12.4697 10.4697L20.6697 2.26966C20.9626 1.97676 21.4374 1.97676 21.7303 2.26966Z" fill="#292D32"/>
<path fill-rule="evenodd" clip-rule="evenodd" d="M16.45 2C16.45 1.58579 16.7858 1.25 17.2 1.25H22C22.4142 1.25 22.75 1.58579 22.75 2V6.8C22.75 7.21421 22.4142 7.55 22 7.55C21.5858 7.55 21.25 7.21421 21.25 6.8V2.75H17.2C16.7858 2.75 16.45 2.41421 16.45 2Z" fill="#292D32"/>
<path fill-rule="evenodd" clip-rule="evenodd" d="M3.09467 3.09467C4.42914 1.7602 6.42603 1.25 9 1.25H11C11.4142 1.25 11.75 1.58579 11.75 2C11.75 2.41421 11.4142 2.75 11 2.75H9C6.57397 2.75 5.07086 3.2398 4.15533 4.15533C3.2398 5.07086 2.75 6.57397 2.75 9V15C2.75 17.426 3.2398 18.9291 4.15533 19.8447C5.07086 20.7602 6.57397 21.25 9 21.25H15C17.426 21.25 18.9291 20.7602 19.8447 19.8447C20.7602 18.9291 21.25 17.426 21.25 15V13C21.25 12.5858 21.5858 12.25 22 12.25C22.4142 12.25 22.75 12.5858 22.75 13V15C22.75 17.574 22.2398 19.5709 20.9053 20.9053C19.5709 22.2398 17.574 22.75 15 22.75H9C6.42603 22.75 4.42914 22.2398 3.09467 20.9053C1.7602 19.5709 1.25 17.574 1.25 15V9C1.25 6.42603 1.7602 4.42914 3.09467 3.09467Z" fill="#292D32"/>
</svg>
