<svg width="24" height="24" viewBox="0 0 24 24" fill="none" xmlns="http://www.w3.org/2000/svg">
<path fill-rule="evenodd" clip-rule="evenodd" d="M12 9.16998C10.4342 9.16998 9.17 10.4342 9.17 12C9.17 13.5658 10.4342 14.83 12 14.83C13.5658 14.83 14.83 13.5658 14.83 12C14.83 10.4342 13.5658 9.16998 12 9.16998ZM7.67 12C7.67 9.60577 9.60578 7.66998 12 7.66998C14.3942 7.66998 16.33 9.60577 16.33 12C16.33 14.3942 14.3942 16.33 12 16.33C9.60578 16.33 7.67 14.3942 7.67 12Z" fill="#292D32"/>
<path fill-rule="evenodd" clip-rule="evenodd" d="M2.25749 8.99693C4.64841 5.23857 8.15202 2.96997 12 2.96997C15.8481 2.96997 19.3519 5.23877 21.7428 8.99743C22.2878 9.85177 22.535 10.9461 22.535 11.995C22.535 13.0438 22.2878 14.1382 21.7428 14.9925C19.3519 18.7512 15.8481 21.02 12 21.02C8.15185 21.02 4.6481 18.7512 2.25718 14.9925C1.7122 14.1382 1.465 13.0438 1.465 11.995C1.465 10.9459 1.71229 9.85135 2.25749 8.99693ZM12 4.46997C8.78814 4.46997 5.71189 6.36117 3.52281 9.80251L3.52219 9.8035C3.1676 10.359 2.965 11.1542 2.965 11.995C2.965 12.8357 3.1676 13.6309 3.52219 14.1864L3.52282 14.1874C5.71189 17.6288 8.78814 19.52 12 19.52C15.2118 19.52 18.2881 17.6288 20.4772 14.1874L20.4778 14.1864C20.8324 13.6309 21.035 12.8357 21.035 11.995C21.035 11.1542 20.8324 10.359 20.4778 9.8035L20.4772 9.80251C18.2881 6.36117 15.2118 4.46997 12 4.46997Z" fill="#292D32"/>
</svg>
