<svg width="24" height="24" viewBox="0 0 24 24" fill="none" xmlns="http://www.w3.org/2000/svg">
<path fill-rule="evenodd" clip-rule="evenodd" d="M12 9.16998C10.4342 9.16998 9.17 10.4342 9.17 12C9.17 12.5104 9.30393 12.9865 9.54029 13.399L13.399 9.54027C12.9865 9.30391 12.5104 9.16998 12 9.16998ZM7.67 12C7.67 9.60577 9.60578 7.66998 12 7.66998C13.1978 7.66998 14.2761 8.15542 15.0603 8.93965C15.3532 9.23255 15.3532 9.70742 15.0603 10.0003L10.0003 15.0603C9.70744 15.3532 9.23256 15.3532 8.93967 15.0603C8.15544 14.2761 7.67 13.1978 7.67 12Z" fill="#292D32"/>
<path fill-rule="evenodd" clip-rule="evenodd" d="M2.25749 9.00695C4.64841 5.24858 8.15202 2.97998 12 2.97998C14.2496 2.97998 16.4055 3.76359 18.2716 5.17121C18.6023 5.42065 18.6682 5.89093 18.4188 6.22162C18.1693 6.55231 17.699 6.61818 17.3684 6.36875C15.7345 5.13637 13.8904 4.47998 12 4.47998C8.78814 4.47998 5.71189 6.37118 3.52281 9.81252L3.52219 9.81351C3.1676 10.369 2.965 11.1642 2.965 12.005C2.965 12.8457 3.1676 13.6409 3.52219 14.1965L3.52253 14.197C4.2763 15.3801 5.14911 16.393 6.08903 17.2013C6.40308 17.4714 6.43872 17.945 6.16863 18.259C5.89855 18.5731 5.42502 18.6087 5.11097 18.3386C4.05089 17.427 3.08369 16.2998 2.25746 15.003C1.71229 14.1486 1.465 13.054 1.465 12.005C1.465 10.9559 1.71229 9.86136 2.25749 9.00695Z" fill="#292D32"/>
<path fill-rule="evenodd" clip-rule="evenodd" d="M19.5799 7.34561C19.9027 7.086 20.3748 7.13719 20.6344 7.45995C21.0183 7.93722 21.3954 8.45007 21.7432 8.99815C22.2879 9.85239 22.535 10.9465 22.535 11.995C22.535 13.0441 22.2877 14.1386 21.7425 14.9931C19.3516 18.7514 15.848 21.02 12 21.02C10.6635 21.02 9.35482 20.7374 8.12895 20.2212C7.7472 20.0605 7.56803 19.6207 7.72877 19.239C7.88951 18.8572 8.32928 18.6781 8.71104 18.8388C9.76517 19.2826 10.8765 19.52 12 19.52C15.2118 19.52 18.2881 17.6288 20.4772 14.1875L20.4778 14.1865C20.8324 13.631 21.035 12.8358 21.035 11.995C21.035 11.1543 20.8324 10.3591 20.4778 9.80355L20.4767 9.80189C20.1646 9.30997 19.8217 8.84282 19.4656 8.40009C19.206 8.07733 19.2572 7.60522 19.5799 7.34561Z" fill="#292D32"/>
<path fill-rule="evenodd" clip-rule="evenodd" d="M15.646 11.9625C16.0533 12.0376 16.3227 12.4287 16.2476 12.836C15.9312 14.5519 14.5419 15.9412 12.826 16.2576C12.4187 16.3327 12.0275 16.0634 11.9524 15.656C11.8773 15.2487 12.1466 14.8576 12.554 14.7825C13.6581 14.5789 14.5688 13.6682 14.7724 12.564C14.8475 12.1567 15.2387 11.8873 15.646 11.9625Z" fill="#292D32"/>
<path fill-rule="evenodd" clip-rule="evenodd" d="M10.0003 13.9997C10.2932 14.2926 10.2932 14.7675 10.0003 15.0604L2.53033 22.5304C2.23744 22.8233 1.76256 22.8233 1.46967 22.5304C1.17678 22.2375 1.17678 21.7626 1.46967 21.4697L8.93967 13.9997C9.23256 13.7068 9.70744 13.7068 10.0003 13.9997Z" fill="#292D32"/>
<path fill-rule="evenodd" clip-rule="evenodd" d="M22.5303 1.46967C22.8232 1.76256 22.8232 2.23744 22.5303 2.53033L15.0603 10.0003C14.7674 10.2932 14.2926 10.2932 13.9997 10.0003C13.7068 9.70744 13.7068 9.23256 13.9997 8.93967L21.4697 1.46967C21.7626 1.17678 22.2374 1.17678 22.5303 1.46967Z" fill="#292D32"/>
</svg>
