<svg width="25" height="24" viewBox="0 0 25 24" fill="none" xmlns="http://www.w3.org/2000/svg">
<path fill-rule="evenodd" clip-rule="evenodd" d="M13.9915 6.5C13.9915 5.94772 14.4392 5.5 14.9915 5.5H16.5015C20.0849 5.5 23.0015 8.4289 23.0015 12C23.0015 15.5835 20.0726 18.5 16.5015 18.5H14.9915C14.4392 18.5 13.9915 18.0523 13.9915 17.5C13.9915 16.9477 14.4392 16.5 14.9915 16.5H16.5015C18.9704 16.5 21.0015 14.4765 21.0015 12C21.0015 9.5311 18.978 7.5 16.5015 7.5H14.9915C14.4392 7.5 13.9915 7.05228 13.9915 6.5Z" fill="#292D32"/>
<path fill-rule="evenodd" clip-rule="evenodd" d="M1.00146 12C1.00146 8.41772 3.91918 5.5 7.50146 5.5H9.00146C9.55375 5.5 10.0015 5.94772 10.0015 6.5C10.0015 7.05228 9.55375 7.5 9.00146 7.5H7.50146C5.02375 7.5 3.00146 9.52228 3.00146 12C3.00146 14.4689 5.02493 16.5 7.50146 16.5H9.00146C9.55375 16.5 10.0015 16.9477 10.0015 17.5C10.0015 18.0523 9.55375 18.5 9.00146 18.5H7.50146C3.918 18.5 1.00146 15.5711 1.00146 12Z" fill="#292D32"/>
<path fill-rule="evenodd" clip-rule="evenodd" d="M7.00146 12C7.00146 11.4477 7.44918 11 8.00146 11H16.0015C16.5538 11 17.0015 11.4477 17.0015 12C17.0015 12.5523 16.5538 13 16.0015 13H8.00146C7.44918 13 7.00146 12.5523 7.00146 12Z" fill="#292D32"/>
</svg>
