<svg width="24" height="24" viewBox="0 0 24 24" fill="none" xmlns="http://www.w3.org/2000/svg">
<path fill-rule="evenodd" clip-rule="evenodd" d="M1.17004 12C1.17004 6.08579 6.00583 1.25 11.92 1.25C17.8343 1.25 22.67 6.08579 22.67 12C22.67 17.9142 17.8343 22.75 11.92 22.75C6.00583 22.75 1.17004 17.9142 1.17004 12ZM11.92 2.75C6.83426 2.75 2.67004 6.91421 2.67004 12C2.67004 17.0858 6.83426 21.25 11.92 21.25C17.0058 21.25 21.17 17.0858 21.17 12C21.17 6.91421 17.0058 2.75 11.92 2.75Z" fill="black"/>
<path fill-rule="evenodd" clip-rule="evenodd" d="M7.17004 12C7.17004 11.5858 7.50583 11.25 7.92004 11.25H15.92C16.3343 11.25 16.67 11.5858 16.67 12C16.67 12.4142 16.3343 12.75 15.92 12.75H7.92004C7.50583 12.75 7.17004 12.4142 7.17004 12Z" fill="black"/>
</svg>
