<svg width="24" height="24" viewBox="0 0 24 24" fill="none" xmlns="http://www.w3.org/2000/svg">
<path fill-rule="evenodd" clip-rule="evenodd" d="M1.25 12C1.25 6.08579 6.08579 1.25 12 1.25C17.9142 1.25 22.75 6.08579 22.75 12C22.75 17.9142 17.9142 22.75 12 22.75C6.08579 22.75 1.25 17.9142 1.25 12ZM12 2.75C6.91421 2.75 2.75 6.91421 2.75 12C2.75 17.0858 6.91421 21.25 12 21.25C17.0858 21.25 21.25 17.0858 21.25 12C21.25 6.91421 17.0858 2.75 12 2.75Z" fill="black"/>
<path fill-rule="evenodd" clip-rule="evenodd" d="M14.9965 12C14.9965 11.4477 15.4442 11 15.9965 11H16.0054C16.5577 11 17.0054 11.4477 17.0054 12C17.0054 12.5523 16.5577 13 16.0054 13H15.9965C15.4442 13 14.9965 12.5523 14.9965 12Z" fill="black"/>
<path fill-rule="evenodd" clip-rule="evenodd" d="M10.9955 12C10.9955 11.4477 11.4432 11 11.9955 11H12.0045C12.5568 11 13.0045 11.4477 13.0045 12C13.0045 12.5523 12.5568 13 12.0045 13H11.9955C11.4432 13 10.9955 12.5523 10.9955 12Z" fill="black"/>
<path fill-rule="evenodd" clip-rule="evenodd" d="M6.99451 12C6.99451 11.4477 7.44222 11 7.99451 11H8.00349C8.55577 11 9.00349 11.4477 9.00349 12C9.00349 12.5523 8.55577 13 8.00349 13H7.99451C7.44222 13 6.99451 12.5523 6.99451 12Z" fill="black"/>
</svg>
