<svg width="24" height="24" viewBox="0 0 24 24" fill="none" xmlns="http://www.w3.org/2000/svg">
<path fill-rule="evenodd" clip-rule="evenodd" d="M3.09467 3.09467C4.42914 1.7602 6.42603 1.25 9 1.25H15C17.574 1.25 19.5709 1.7602 20.9053 3.09467C22.2398 4.42914 22.75 6.42603 22.75 9V15C22.75 17.574 22.2398 19.5709 20.9053 20.9053C19.5709 22.2398 17.574 22.75 15 22.75H9C6.42603 22.75 4.42914 22.2398 3.09467 20.9053C1.7602 19.5709 1.25 17.574 1.25 15V9C1.25 6.42603 1.7602 4.42914 3.09467 3.09467ZM4.15533 4.15533C3.2398 5.07086 2.75 6.57397 2.75 9V15C2.75 17.426 3.2398 18.9291 4.15533 19.8447C5.07086 20.7602 6.57397 21.25 9 21.25H15C17.426 21.25 18.9291 20.7602 19.8447 19.8447C20.7602 18.9291 21.25 17.426 21.25 15V9C21.25 6.57397 20.7602 5.07086 19.8447 4.15533C18.9291 3.2398 17.426 2.75 15 2.75H9C6.57397 2.75 5.07086 3.2398 4.15533 4.15533Z" fill="black"/>
<path fill-rule="evenodd" clip-rule="evenodd" d="M14.9965 12C14.9965 11.4477 15.4442 11 15.9965 11H16.0054C16.5577 11 17.0054 11.4477 17.0054 12C17.0054 12.5523 16.5577 13 16.0054 13H15.9965C15.4442 13 14.9965 12.5523 14.9965 12Z" fill="black"/>
<path fill-rule="evenodd" clip-rule="evenodd" d="M10.9955 12C10.9955 11.4477 11.4432 11 11.9955 11H12.0045C12.5568 11 13.0045 11.4477 13.0045 12C13.0045 12.5523 12.5568 13 12.0045 13H11.9955C11.4432 13 10.9955 12.5523 10.9955 12Z" fill="black"/>
<path fill-rule="evenodd" clip-rule="evenodd" d="M6.99451 12C6.99451 11.4477 7.44222 11 7.99451 11H8.00349C8.55577 11 9.00349 11.4477 9.00349 12C9.00349 12.5523 8.55577 13 8.00349 13H7.99451C7.44222 13 6.99451 12.5523 6.99451 12Z" fill="black"/>
</svg>
