<svg width="24" height="24" viewBox="0 0 24 24" fill="none" xmlns="http://www.w3.org/2000/svg">
<path fill-rule="evenodd" clip-rule="evenodd" d="M1.25 12C1.25 6.08579 6.08579 1.25 12 1.25C17.9142 1.25 22.75 6.08579 22.75 12C22.75 17.9142 17.9142 22.75 12 22.75C6.08579 22.75 1.25 17.9142 1.25 12ZM9.07239 9.48319C9.07239 7.83307 10.4028 6.50244 12.0531 6.50244C13.7033 6.50244 15.0337 7.83307 15.0337 9.48319C15.0337 10.7854 14.1776 11.4727 13.6173 11.8556C13.3768 12.0218 13.2218 12.1524 13.1214 12.2871C13.038 12.3989 12.9807 12.5283 12.9807 12.736V12.9957C12.9807 13.508 12.5654 13.9233 12.0531 13.9233C11.5408 13.9233 11.1255 13.508 11.1255 12.9957V12.736C11.1255 11.4041 12.002 10.7164 12.565 10.3277L12.5689 10.325C12.7979 10.1686 12.9477 10.0409 13.0439 9.91113C13.1244 9.80246 13.1785 9.67826 13.1785 9.48319C13.1785 8.85758 12.6786 8.35765 12.0531 8.35765C11.4275 8.35765 10.9276 8.85758 10.9276 9.48319C10.9276 9.99549 10.5123 10.4108 9.99999 10.4108C9.48769 10.4108 9.07239 9.99549 9.07239 9.48319ZM12.0475 15.024C11.5352 15.024 11.1199 15.4394 11.1199 15.9517C11.1199 16.464 11.5352 16.8793 12.0475 16.8793H12.0586C12.5709 16.8793 12.9862 16.464 12.9862 15.9517C12.9862 15.4394 12.5709 15.024 12.0586 15.024H12.0475Z" fill="black"/>
</svg>
