<svg width="24" height="24" viewBox="0 0 24 24" fill="none" xmlns="http://www.w3.org/2000/svg">
<path d="M6.58 4.41H18.61L16.73 2.53C16.44 2.24 16.44 1.76 16.73 1.47C17.02 1.18 17.5 1.18 17.79 1.47L20.95 4.63C21.02 4.7 21.07 4.78 21.11 4.87C21.15 4.96 21.17 5.06 21.17 5.16C21.17 5.26 21.15 5.36 21.11 5.45C21.07 5.54 21.02 5.62 20.95 5.69L17.79 8.85C17.64 9 17.45 9.07 17.26 9.07C17.07 9.07 16.88 9 16.73 8.85C16.44 8.56 16.44 8.08 16.73 7.79L18.61 5.91H6.58C5.34 5.91 4.33 6.92 4.33 8.16V11.48C4.33 11.89 3.99 12.23 3.58 12.23C3.17 12.23 2.83 11.89 2.83 11.48V8.16C2.83 6.09 4.51 4.41 6.58 4.41Z" fill="#292D32"/>
<path d="M2.83 18.84C2.83 18.74 2.85 18.64 2.89 18.55C2.93 18.46 2.98 18.38 3.05 18.31L6.21 15.15C6.5 14.86 6.98 14.86 7.27 15.15C7.56 15.44 7.56 15.92 7.27 16.21L5.39 18.09H17.42C18.66 18.09 19.67 17.08 19.67 15.84V12.52C19.67 12.11 20.01 11.77 20.42 11.77C20.83 11.77 21.17 12.11 21.17 12.52V15.84C21.17 17.91 19.49 19.59 17.42 19.59H5.39L7.27 21.47C7.56 21.76 7.56 22.24 7.27 22.53C7.12 22.68 6.93 22.75 6.74 22.75C6.55 22.75 6.36 22.68 6.21 22.53L3.05 19.37C2.98 19.3 2.93 19.22 2.89 19.13C2.85 19.04 2.83 18.94 2.83 18.84Z" fill="#292D32"/>
</svg>
