<svg width="24" height="24" viewBox="0 0 24 24" fill="none" xmlns="http://www.w3.org/2000/svg">
<path fill-rule="evenodd" clip-rule="evenodd" d="M10.5 2.75C6.21979 2.75 2.75 6.21979 2.75 10.5C2.75 14.7802 6.21979 18.25 10.5 18.25C14.7802 18.25 18.25 14.7802 18.25 10.5C18.25 6.21979 14.7802 2.75 10.5 2.75ZM1.25 10.5C1.25 5.39137 5.39137 1.25 10.5 1.25C15.6086 1.25 19.75 5.39137 19.75 10.5C19.75 15.6086 15.6086 19.75 10.5 19.75C5.39137 19.75 1.25 15.6086 1.25 10.5Z" fill="#292D32"/>
<path fill-rule="evenodd" clip-rule="evenodd" d="M17.9697 17.9697C18.2626 17.6768 18.7374 17.6768 19.0303 17.9697L22.5303 21.4697C22.8232 21.7626 22.8232 22.2374 22.5303 22.5303C22.2374 22.8232 21.7626 22.8232 21.4697 22.5303L17.9697 19.0303C17.6768 18.7374 17.6768 18.2626 17.9697 17.9697Z" fill="#292D32"/>
</svg>
