<svg width="24" height="24" viewBox="0 0 24 24" fill="none" xmlns="http://www.w3.org/2000/svg">
<path fill-rule="evenodd" clip-rule="evenodd" d="M10.5 3C6.35786 3 3 6.35786 3 10.5C3 14.6421 6.35786 18 10.5 18C14.6421 18 18 14.6421 18 10.5C18 6.35786 14.6421 3 10.5 3ZM1 10.5C1 5.25329 5.25329 1 10.5 1C15.7467 1 20 5.25329 20 10.5C20 15.7467 15.7467 20 10.5 20C5.25329 20 1 15.7467 1 10.5Z" fill="#292D32"/>
<path fill-rule="evenodd" clip-rule="evenodd" d="M17.7929 17.7929C18.1834 17.4024 18.8166 17.4024 19.2071 17.7929L22.7071 21.2929C23.0976 21.6834 23.0976 22.3166 22.7071 22.7071C22.3166 23.0976 21.6834 23.0976 21.2929 22.7071L17.7929 19.2071C17.4024 18.8166 17.4024 18.1834 17.7929 17.7929Z" fill="#292D32"/>
</svg>
