<svg width="24" height="24" viewBox="0 0 24 24" fill="none" xmlns="http://www.w3.org/2000/svg">
<path fill-rule="evenodd" clip-rule="evenodd" d="M12 8.25C12.4142 8.25 12.75 8.58579 12.75 9V14C12.75 14.4142 12.4142 14.75 12 14.75C11.5858 14.75 11.25 14.4142 11.25 14V9C11.25 8.58579 11.5858 8.25 12 8.25Z" fill="black"/>
<path fill-rule="evenodd" clip-rule="evenodd" d="M12 3.34253C11.2001 3.34253 10.2323 3.89142 9.41588 5.36374L3.3559 16.2637C2.5954 17.6353 2.62792 18.7172 3.03553 19.4116C3.44271 20.1053 4.36973 20.66 5.93997 20.66H12C12.0418 20.66 12.0828 20.6635 12.1227 20.67H18.06C19.6244 20.67 20.5523 20.1158 20.961 19.421C21.3698 18.7261 21.404 17.6443 20.644 16.2737L14.5844 5.36437C13.768 3.89205 12.7998 3.34253 12 3.34253ZM11.8772 22.16H5.93997C4.04021 22.16 2.50723 21.4748 1.74192 20.1709C0.977026 18.8679 1.12454 17.1947 2.04405 15.5363L8.10407 4.63632C8.10419 4.6361 8.10394 4.63654 8.10407 4.63632C9.06762 2.89903 10.45 1.84253 12 1.84253C13.5499 1.84253 14.932 2.89838 15.8955 4.63569L18.8355 9.92569L21.9557 15.546C22.8758 17.2054 23.0201 18.879 22.2539 20.1815C21.4876 21.4843 19.9555 22.17 18.06 22.17H12C11.9582 22.17 11.9171 22.1666 11.8772 22.16Z" fill="black"/>
<path fill-rule="evenodd" clip-rule="evenodd" d="M10.9945 17C10.9945 16.4477 11.4422 16 11.9945 16H12.0035C12.5558 16 13.0035 16.4477 13.0035 17C13.0035 17.5523 12.5558 18 12.0035 18H11.9945C11.4422 18 10.9945 17.5523 10.9945 17Z" fill="black"/>
</svg>
